# xmcd
#
# Track frame offsets:
#	182
#	29502
#	54770
#	77290
#
# Disc length: 1315 seconds
#
# Revision: 0
# Processed by: cddbd v1.5.2PL0 Copyright (c) Steve Scherf et al.
# Submitted via: audiograbber 1.83.01
#
DISCID=1f052104
DTITLE=Pleasure Game - Le Dormeur
DYEAR=1991
DGENRE=Electronic
TTITLE0=Le Dormeur (remixed by SA 42)
TTITLE1=Le Dormeur (remixed by SA 42)
TTITLE2=Le Dormeur (remixed by Amnesia)
TTITLE3=Le Dormeur (remixed by Amnesia)
EXTD=
EXTT0=
EXTT1=
EXTT2=
EXTT3=
PLAYORDER=
